<?xml version="1.0" standalone="no"?>
<!DOCTYPE svg PUBLIC "-//W3C//DTD SVG 1.1//EN" "http://www.w3.org/Graphics/SVG/1.1/DTD/svg11.dtd">
<svg xmlns="http://www.w3.org/2000/svg">
<metadata>Generated by Fontastic.me</metadata>
<defs>
<font id="fontastic-icon" horiz-adv-x="512">
<font-face font-family="fontastic-icon" units-per-em="512" ascent="480" descent="-32"/>
<missing-glyph horiz-adv-x="512" />

<glyph glyph-name="list" unicode="&#97;" d="M501 491l-490 0c-6 0-11-5-11-11l0-107c0-6 5-10 11-10l490 0c6 0 11 4 11 10l0 107c0 6-5 11-11 11z m0-171l-490 0c-6 0-11-5-11-11l0-106c0-6 5-11 11-11l490 0c6 0 11 5 11 11l0 106c0 6-5 11-11 11z m0-171l-490 0c-6 0-11-4-11-10l0-107c0-6 5-11 11-11l490 0c6 0 11 5 11 11l0 107c0 6-5 10-11 10z"/>
<glyph glyph-name="cart" unicode="&#98;" d="M501 427l-54 0c-11 0-20-8-22-19l-9-67-384 0c-18 0-32-14-32-32 0-17 14-32 32-32l309 0c6 0 11-4 11-10 0-6-5-11-11-11l-288 0c-17 0-32-14-32-32 0-18 15-32 32-32l278 0c6 0 10-5 10-11 0-6-4-10-10-10l-256 0c-18 0-32-15-32-32 0-18 14-32 32-32l310 0c11 0 20 8 22 18l29 206 11 74 54 0c6 0 11 5 11 11 0 6-5 11-11 11z m-373-342c-24 0-43-19-43-42 0-24 19-43 43-43 24 0 43 19 43 43 0 23-19 42-43 42z m235 0c-24 0-43-19-43-42 0-24 19-43 43-43 23 0 42 19 42 43 0 23-19 42-42 42z"/>
<glyph glyph-name="user-lock" unicode="&#99;" d="M325 231c-9 3-19 6-29 10-13 4-27 8-40 13l0 40c10 7 29 25 32 63 8 5 12 15 12 29 0 12-3 22-10 28 6 13 14 36 8 59-7 29-47 39-79 39 0 0 0 0 0 0-29 0-64-8-76-30-11 1-20-2-26-8-14-16-6-45-2-61-2-2-4-5-6-8-3-5-4-12-4-19 0-14 5-25 13-30 2-37 21-55 31-62l0-40c-13-5-27-9-40-13-50-17-90-30-98-55-10-31-11-88-11-90 0-3 1-5 3-8 2-2 5-3 8-3l265 0 0 83c0 13 10 20 20 20l15 0c0 15 6 30 14 43z m176-60l-15 0 0 9c0 41-40 81-81 81-40 0-80-40-80-81l0-9-16 0c-6 0-10-5-10-11l0-149c0-6 4-11 10-11l192 0c6 0 11 5 11 11l0 149c0 6-5 11-11 11z m-83-81c-1 0-1-1-2-1l0-38c0-6-5-11-11-11-6 0-10 5-10 11l0 38c-4 3-7 8-7 13 0 10 7 18 17 18 10 0 18-8 18-17 0-5-2-9-5-13z m-72 78l0 12c0 29 31 59 59 59 29 0 59-30 59-59l0-12z"/>
<glyph glyph-name="arrow-left" unicode="&#100;" d="M149 256l261 218c9 8 10 21 3 30-8 9-21 11-30 3l-281-235c-5-4-8-10-8-16 0-6 3-12 8-16l280-235c4-3 9-5 14-5 6 0 12 3 17 8 7 9 6 22-3 30z"/>
<glyph glyph-name="arrow-right" unicode="&#101;" d="M410 272l-281 235c-9 8-22 6-30-3-7-9-6-22 3-30l261-218-261-218c-9-8-10-21-3-30 5-5 11-8 17-8 5 0 10 2 13 5l281 235c5 4 8 10 8 16 0 6-3 12-8 16z"/>
<glyph glyph-name="arrow-db-left" unicode="&#102;" d="M286 256l220 220c8 8 8 21 0 30-9 8-22 8-30 0l-235-235c-8-8-8-22 0-30l235-235c4-4 9-6 15-6 5 0 11 2 15 6 8 9 8 22 0 30z m-234 0l219 220c8 8 8 21 0 30-8 8-22 8-30 0l-235-235c-8-8-8-22 0-30l235-235c4-4 10-6 15-6 5 0 11 2 15 6 8 9 8 22 0 30z"/>
<glyph glyph-name="arrow-db-right" unicode="&#103;" d="M271 271l-235 235c-8 8-21 8-30 0-8-9-8-22 0-30l220-220-220-220c-8-8-8-21 0-30 4-4 10-6 15-6 6 0 11 2 15 6l235 235c8 8 8 22 0 30z m235 0l-235 235c-8 8-22 8-30 0-8-9-8-22 0-30l219-220-219-220c-8-8-8-21 0-30 4-4 10-6 15-6 5 0 11 2 15 6l235 235c8 8 8 22 0 30z"/>
<glyph glyph-name="truck" unicode="&#104;" d="M160 132l0 156c0 6-5 11-11 11l-53 0c-53 0-96-43-96-96l0-107c0-6 5-11 11-11l94 0c8 25 29 43 55 47z m-53 103l-34 0c-5 0-9-5-9-10l0-33c0-6-5-11-11-11-6 0-10 5-10 11l0 33c0 17 13 31 30 31l34 0c6 0 10-5 10-11 0-6-4-10-10-10z m394 149l-320 0c-6 0-10-5-10-11l0-240c38 0 69-31 69-69l96 0c0 38 31 69 69 69 39 0 70-31 70-69l26 0c6 0 11 5 11 11l0 298c0 6-5 11-11 11z m-330-261c-33 0-59-27-59-59 0-32 26-59 59-59 32 0 58 27 58 59 0 32-26 59-58 59z m234 0c-32 0-58-27-58-59 0-32 26-59 58-59 33 0 59 27 59 59 0 32-26 59-59 59z m-330-59l-64 0c-6 0-11-5-11-11 0-6 5-10 11-10l64 0c6 0 10 4 10 10 0 6-4 11-10 11z"/>
<glyph glyph-name="user" unicode="&#105;" d="M490 102c-16 31-70 51-144 78-8 3-17 7-26 10l0 51c9 8 29 29 32 63 5 4 8 11 11 20 3 15 1 33-9 44 0 1 1 3 2 5 8 20 23 59 17 89-7 37-60 50-102 50-33 0-74-8-86-31-13-2-23-7-30-16-18-25-5-69 3-93 0-1 0-3 1-4-11-10-13-28-10-44 3-9 6-16 11-20 3-34 23-55 32-63l0-51c-9-3-18-7-26-10-74-27-128-47-144-78-22-44-22-89-22-91 0-6 5-11 11-11l490 0c6 0 11 5 11 11 0 2 0 47-22 91z"/>
<glyph glyph-name="check-shield" unicode="&#106;" d="M459 512l-406 0c-6 0-10-5-10-11l0-155c0-145 80-277 208-345 2-1 3-1 5-1 2 0 3 0 5 1 128 68 208 200 208 345l0 155c0 6-4 11-10 11z m-78-157l-160-149c-2-2-5-3-8-3-2 0-5 1-7 3l-54 53c-4 4-4 11 0 15 5 4 11 4 16 0l46-46 152 142c4 4 11 4 15 0 4-4 4-11 0-15z"/>
<glyph glyph-name="cross-shield" unicode="&#107;" d="M459 512l-406 0c-6 0-10-5-10-11l0-155c0-145 80-277 208-345 2-1 3-1 5-1 2 0 3 0 5 1 128 68 208 200 208 345l0 155c0 6-4 11-10 11z m-99-291c4-4 4-11 0-15-3-2-5-3-8-3-3 0-5 1-8 3l-88 88-88-88c-3-2-5-3-8-3-3 0-5 1-8 3-4 4-4 11 0 15l89 88-89 89c-4 4-4 11 0 15 5 4 11 4 16 0l88-89 88 89c5 4 11 4 16 0 4-4 4-11 0-15l-89-89z"/>
<glyph glyph-name="clock" unicode="&#108;" d="M256 512c-141 0-256-115-256-256 0-141 115-256 256-256 141 0 256 115 256 256 0 141-115 256-256 256z m125-381c-2-2-5-3-8-3-2 0-5 1-7 3l-128 117c-2 2-3 5-3 8l0 117c0 6 4 11 10 11 6 0 11-5 11-11l0-112 125-114c4-4 4-11 0-16z"/>
<glyph glyph-name="star-badge" unicode="&#109;" d="M512 256c0 3-2 6-4 8l-41 34 25 47c1 3 2 6 0 9-1 3-3 5-6 6l-51 16 5 53c0 3-1 6-3 8-2 2-6 3-9 3l-52-5-16 51c-1 3-3 5-6 7-3 1-6 1-9-1l-47-24-34 40c-4 5-12 5-16 0l-34-40-47 24c-3 2-6 2-9 1-3-2-5-4-6-7l-16-51-53 5c-3 0-6-1-8-3-2-2-4-5-3-9l4-52-50-16c-3-1-6-3-7-6-1-3-1-6 1-9l24-47-40-34c-3-2-4-5-4-8 0-3 1-6 4-8l40-34-24-47c-2-3-2-6-1-9 1-3 4-5 7-6l50-16-4-53c-1-3 1-6 3-8 2-2 5-3 8-3l53 5 16-51c1-3 3-5 6-7 3-1 6-1 9 1l47 24 34-40c2-3 5-4 8-4 3 0 6 1 8 4l34 40 47-24c3-2 6-2 9-1 3 2 5 4 6 7l16 51 52-5c3 0 7 1 9 3 2 2 3 5 3 8l-5 53 51 16c3 1 5 3 6 6 2 3 1 6 0 9l-25 47 41 34c2 2 4 5 4 8z m-172-103c2-4 1-9-3-12-2-2-4-2-7-2-2 0-4 0-6 2l-68 51-68-51c-4-3-9-3-13 0-4 3-6 8-4 12l29 78-58 49c-3 3-4 7-3 12 2 4 6 7 10 7l68 0 29 68c2 4 6 6 10 6l0 0c4 0 8-2 10-6l29-68 67 0c5 0 9-3 10-7 2-5 1-9-3-12l-58-49z"/>
<glyph glyph-name="movie-play" unicode="&#110;" d="M11 427l-11 0 0-342 512 0 0 342z m245-299c-71 0-128 57-128 128 0 71 57 128 128 128 71 0 128-57 128-128 0-71-57-128-128-128z m245 384l-138 0 0-64 149 0 0 53c0 6-5 11-11 11z m-330 0l170 0 0-64-170 0z m-171-448l0-53c0-6 5-11 11-11l138 0 0 64z m149 384l0 64-138 0c-6 0-11-5-11-11l0-53z m22-384l170 0 0-64-170 0z m192 0l0-64 138 0c6 0 11 5 11 11l0 53z m-49 202l-85 42c-4 2-7 2-11 0-3-2-5-6-5-9l0-86c0-3 2-7 5-9 2-1 4-1 6-1 2 0 3 0 5 1l85 42c4 2 6 6 6 10 0 4-2 8-6 10z"/>
<glyph glyph-name="play-circle" unicode="&#111;" d="M256 0c141 0 256 115 256 256 0 141-115 256-256 256-141 0-256-115-256-256 0-141 115-256 256-256z m-85 352c0 4 2 7 5 9 3 2 7 2 10 1l192-96c4-2 6-6 6-10 0-4-2-8-6-10l-192-96c-1 0-3-1-5-1-2 0-4 1-5 2-3 2-5 5-5 9z"/>
<glyph glyph-name="text-wrapping" unicode="&#112;" d="M501 512l-490 0c-6 0-11-5-11-11l0-490c0-6 5-11 11-11l490 0c6 0 11 5 11 11l0 490c0 6-5 11-11 11z m-277-384l-149 0c-6 0-11 5-11 11 0 6 5 10 11 10l149 0c6 0 11-4 11-10 0-6-5-11-11-11z m213 64l-362 0c-6 0-11 5-11 11 0 6 5 10 11 10l362 0c6 0 11-4 11-10 0-6-5-11-11-11z m0 64l-362 0c-6 0-11 5-11 11 0 6 5 10 11 10l362 0c6 0 11-4 11-10 0-6-5-11-11-11z m0 64l-362 0c-6 0-11 5-11 11 0 6 5 10 11 10l362 0c6 0 11-4 11-10 0-6-5-11-11-11z m0 64l-298 0c-6 0-11 5-11 11 0 6 5 10 11 10l298 0c6 0 11-4 11-10 0-6-5-11-11-11z"/>
<glyph glyph-name="list-wrapping" unicode="&#113;" d="M501 512l-490 0c-6 0-11-5-11-11l0-490c0-6 5-11 11-11l490 0c6 0 11 5 11 11l0 490c0 6-5 11-11 11z m-330-437c0-6-5-11-11-11l-85 0c-6 0-11 5-11 11l0 85c0 6 5 11 11 11l85 0c6 0 11-5 11-11z m0 138c0-6-5-10-11-10l-85 0c-6 0-11 4-11 10l0 86c0 6 5 10 11 10l85 0c6 0 11-4 11-10z m0 139c0-6-5-11-11-11l-85 0c-6 0-11 5-11 11l0 85c0 6 5 11 11 11l85 0c6 0 11-5 11-11z m202-245l-149 0c-6 0-11 4-11 10 0 6 5 11 11 11l149 0c6 0 11-5 11-11 0-6-5-10-11-10z m64 64l-213 0c-6 0-11 4-11 10 0 6 5 11 11 11l213 0c6 0 11-5 11-11 0-6-5-10-11-10z m0 64l-213 0c-6 0-11 4-11 10 0 6 5 11 11 11l213 0c6 0 11-5 11-11 0-6-5-10-11-10z m0 64l-213 0c-6 0-11 4-11 10 0 6 5 11 11 11l213 0c6 0 11-5 11-11 0-6-5-10-11-10z m0 64l-149 0c-6 0-11 4-11 10 0 6 5 11 11 11l149 0c6 0 11-5 11-11 0-6-5-10-11-10z"/>
<glyph glyph-name="arrow-down" unicode="&#114;" d="M504 413c-9 7-22 6-30-3l-218-261-218 261c-8 9-21 10-30 3-9-8-11-21-3-30l235-281c4-5 10-8 16-8 6 0 12 3 16 8l235 281c8 9 6 22-3 30z"/>
<glyph glyph-name="arrow-up" unicode="&#115;" d="M507 130l-235 280c-8 10-24 10-32 0l-235-280c-8-9-6-23 3-30 9-8 22-7 30 2l218 261 218-261c5-5 11-7 17-7 5 0 9 1 13 5 9 7 11 21 3 30z"/>
<glyph glyph-name="edit" unicode="&#116;" d="M256 512c-141 0-256-115-256-256 0-141 115-256 256-256 141 0 256 115 256 256 0 141-115 256-256 256z m-144-386l42 99 71-71-99-42c-1-1-3-1-4-1-3 0-6 1-8 3-3 3-4 8-2 12z m130 42l-75 75 134 134c1 0 1 0 1-1l75-75-134-134c-1 0-1 0-1 1z m75 224c0 0 0 0-1 0l32 32c2 2 5 3 8 3 2 0 5-1 7-3l61-61c4-4 4-11 0-15l-32-32z"/>
<glyph glyph-name="mail" unicode="&#117;" d="M484 385l-221-180c-2-2-5-2-7-2-2 0-5 0-7 2l-221 180c-4-7-7-14-7-22l0-235c0-24 19-43 43-43l384 0c24 0 43 19 43 43l0 235c0 8-3 15-7 22z m-15 15c-6 3-13 5-21 5l-384 0c-8 0-15-2-21-5l213-173z"/>
<glyph glyph-name="tags" unicode="&#118;" d="M168 466c-2 2-5 3-8 3l-149 0c-6 0-11-4-11-10l0-150c0-2 1-5 3-7l299-299c2-2 5-3 7-3 3 0 6 1 8 3l149 149c4 5 4 11 0 16z m-61-146c-24 0-43 19-43 43 0 23 19 42 43 42 23 0 42-19 42-42 0-24-19-43-42-43z m402-88l-277 277c-2 2-5 3-8 3l-149 0c-6 0-11-5-11-11 0-6 5-10 11-10l145 0 266-267-14-14c-4-4-4-11 0-15 3-2 5-3 8-3 3 0 5 1 8 3l21 21c4 5 4 11 0 16z"/>
<glyph glyph-name="log-out" unicode="&#119;" d="M277 138c-12 0-21-9-21-21l0-74-213 0 0 426 213 0 0-75c0-12 9-21 21-21 0 0 0 0 0 0 12 0 22 9 22 21l0 97c0 5-3 11-7 15-4 4-9 6-15 6l-256 0c-12 0-21-10-21-21l0-470c0-11 9-21 21-21l256 0c12 0 22 10 22 21l0 96c0 12-10 21-22 21z m233 115c-1 4-4 8-8 10l-103 103c-8 9-21 9-30 0-8-8-8-21 0-30l69-69-320-1c-12 0-22-9-22-21 0-12 10-21 22-21l0 0 322 0-71-71c-9-8-9-22 0-30 4-4 9-6 15-6 5 0 11 2 15 6l107 106c6 7 8 16 4 24z"/>
<glyph glyph-name="key" unicode="&#120;" d="M128 0c71 0 128 57 128 128 0 20-5 39-13 57l98 99 43-43 36 36-42 43 27 28 54-54 47 47-54 54 25 24c16 16 16 42 0 58-16 15-42 15-58 0l-234-234c-18 8-37 13-57 13-71 0-128-57-128-128 0-71 57-128 128-128z m0 192c35 0 64-29 64-64 0-35-29-64-64-64-35 0-64 29-64 64 0 35 29 64 64 64z"/>
<glyph glyph-name="call" unicode="&#121;" d="M469 135l-52 52c-10 10-24 16-39 16-14 0-28-6-38-16l-14-14c-55 45-108 98-153 153l14 14c21 21 21 56 0 77l-52 52c-11 11-24 16-39 16-15 0-28-5-39-16l-28-28c-27-27-31-69-10-100 83-127 195-239 322-322 13-9 28-14 44-14 21 0 41 9 56 24l28 28c11 11 16 24 16 39 0 15-5 28-16 39z"/>
<glyph glyph-name="star-half" unicode="&#122;" d="M357 239l74 71-102 15-19 3-9 17-45 92 0-275 17-9 91-48-17 101-4 19z m129 74l-103-101 24-143c1-6 1-11-2-14-2-4-5-6-9-6-4 0-7 2-12 4l-128 67-128-67c-5-2-8-4-12-4-4 0-7 2-9 6-3 3-3 8-2 14l24 143-104 101c-6 7-8 12-6 17 2 6 7 9 15 10l144 21 64 130c4 8 8 12 14 12 5 0 10-4 14-12l64-130 144-21c8-1 13-4 15-10 2-5 0-10-7-17z"/>
<glyph glyph-name="cross" unicode="&#65;" d="M286 256l220 220c8 8 8 21 0 30-9 8-22 8-30 0l-220-220-220 220c-8 8-21 8-30 0-8-9-8-22 0-30l220-220-220-220c-8-8-8-21 0-30 4-4 10-6 15-6 6 0 11 2 15 6l220 220 220-220c4-4 9-6 15-6 5 0 11 2 15 6 8 9 8 22 0 30z"/>
<glyph glyph-name="file-favorite" unicode="&#66;" d="M279 213c-8 21-6 45 5 64 11 20 31 33 53 37 14 17 35 27 58 27 11 0 22-2 32-7l0 61c0 3-1 5-3 7l-107 107c-2 2-5 3-8 3l-234 0c-6 0-11-5-11-11l0-448c0-6 5-10 11-10l224 0 0 88c-6 5-11 11-15 18-11 20-13 43-5 64z m30 288l107-106-107 0z m86-416c-23 0-44 11-58 28-6 1-12 3-17 5l0-107c0-4 2-8 6-10 4-2 8-1 11 1l20 17 31 25c2 2 4 3 7 3 2 0 5-1 6-3l31-25 20-17c2-1 4-2 7-2 1 0 3 0 4 1 4 2 6 6 6 10l0 107c-5-2-11-4-16-5-14-17-36-28-58-28z m99 104c0 1 0 2 0 3 0 1 0 2-1 3 0 1 0 3 0 4-1 1-1 2-1 3 0 1-1 2-1 3-1 1-1 2-1 3-1 2-2 4-3 5 1 2 2 4 3 6 0 1 0 2 1 2 0 2 1 3 1 4 0 1 0 2 1 3 0 1 0 2 0 3 1 2 1 3 1 4 0 1 0 2 0 3 0 1 0 2 0 3 0 1 0 2 0 3 0 2 0 3 0 4-1 1-1 2-1 3 0 1 0 2-1 3 0 2-1 3-1 4 0 1-1 2-1 3-1 2-2 4-3 6-1 2-2 3-4 5 0 1-1 1-1 2-1 1-2 2-3 3-1 1-1 1-2 2-1 1-2 2-3 3-1 0-2 1-2 1-1 1-2 2-4 2 0 1-1 1-2 2-1 0-2 1-3 2-1 0-2 0-3 1-1 0-2 0-4 1-1 0-1 0-2 1-2 0-3 0-4 0-1 1-2 1-3 1-2 0-4 0-6 0 0 0 0 0 0 0-1 2-2 4-4 5 0 1-1 2-1 2-1 1-2 3-3 4-1 0-1 1-2 2-1 0-2 1-3 2-9 8-21 12-33 12-18 0-34-8-44-22-2-3-4-5-8-5-17-2-32-11-41-26-8-15-9-34-2-49 1-3 1-6 0-9-6-14-6-29-1-43 1-2 2-4 3-6 1-2 3-4 4-6 0 0 1-1 1-1 1-1 2-3 3-4 1 0 2-1 2-1 1-1 2-2 3-3 1-1 2-1 3-2 0 0 1-1 2-1l0 0c7-5 15-8 23-8 4-1 6-2 8-5 10-14 26-22 44-22 17 0 33 8 43 22 2 3 5 4 8 5 8 0 16 3 23 8l0 0c1 0 2 1 3 1 1 1 1 1 2 2 1 1 2 2 3 3 1 0 1 1 2 1 1 1 2 3 3 4 0 0 1 1 1 1 2 2 3 4 4 5 0 1 0 1 0 1 0 0 0 0 0 1 1 1 2 3 3 5 0 1 1 2 1 3 0 1 1 2 1 3 1 1 1 3 1 4 0 1 0 2 1 3 0 1 0 2 0 3 0 1 0 2 0 3 0 1 0 3 0 4z m-99-18c-24 0-43 19-43 42 0 24 19 43 43 43 23 0 42-19 42-43 0-23-19-42-42-42z"/>
<glyph glyph-name="bars" unicode="&#67;" d="M475 128l0-37c0-5-1-9-5-12-4-4-8-6-13-6l-402 0c-5 0-9 2-13 6-4 3-5 7-5 12l0 37c0 5 1 9 5 13 4 3 8 5 13 5l402 0c5 0 9-2 13-5 4-4 5-8 5-13z m0 146l0-36c0-5-1-10-5-13-4-4-8-6-13-6l-402 0c-5 0-9 2-13 6-4 3-5 8-5 13l0 36c0 5 1 10 5 13 4 4 8 6 13 6l402 0c5 0 9-2 13-6 4-3 5-8 5-13z m0 147l0-37c0-5-1-9-5-13-4-3-8-5-13-5l-402 0c-5 0-9 2-13 5-4 4-5 8-5 13l0 37c0 5 1 9 5 12 4 4 8 6 13 6l402 0c5 0 9-2 13-6 4-3 5-7 5-12z"/>
<glyph glyph-name="facebook" unicode="&#68;" d="M384 509l0-76-45 0c-17 0-28-3-33-10-6-7-9-17-9-31l0-54 84 0-11-85-73 0 0-216-87 0 0 216-73 0 0 85 73 0 0 62c0 36 10 63 29 83 20 19 47 29 80 29 28 0 49-1 65-3z"/>
<glyph glyph-name="archive" unicode="&#69;" d="M311 274c0 5-2 10-6 13-3 4-7 6-12 6l-74 0c-5 0-9-2-12-6-4-3-6-8-6-13 0-5 2-9 6-13 3-3 7-5 12-5l74 0c5 0 9 2 12 5 4 4 6 8 6 13z m164 55l0-274c0-5-1-9-5-13-4-4-8-5-13-5l-402 0c-5 0-9 1-13 5-4 4-5 8-5 13l0 274c0 5 1 9 5 13 4 4 8 5 13 5l402 0c5 0 9-1 13-5 4-4 5-8 5-13z m19 128l0-73c0-5-2-9-6-13-3-3-8-5-13-5l-438 0c-5 0-10 2-13 5-4 4-6 8-6 13l0 73c0 5 2 9 6 13 3 4 8 5 13 5l438 0c5 0 10-1 13-5 4-4 6-8 6-13z"/>
<glyph glyph-name="heart-outline" unicode="&#70;" d="M475 342c0 15-2 29-6 41-4 11-9 21-15 28-7 7-15 12-24 17-9 4-18 7-27 9-8 1-18 2-28 2-9 0-20-3-32-7-11-5-22-11-31-19-10-7-18-14-25-20-7-7-12-13-17-18-3-4-8-6-14-6-6 0-11 2-14 6-5 5-10 11-17 18-7 6-15 13-25 20-9 8-20 14-31 19-12 4-23 7-32 7-10 0-20-1-28-2-9-2-18-5-27-9-9-5-17-10-24-17-6-7-11-17-15-28-4-12-6-26-6-41 0-32 17-66 53-102l166-160 166 160c36 36 53 70 53 102z m37 0c0-42-22-85-65-129l-178-171c-4-4-8-5-13-5-5 0-9 1-13 5l-178 172c-2 1-4 4-8 7-3 4-8 10-16 19-7 9-13 18-19 28-6 9-11 21-15 34-5 14-7 27-7 40 0 42 12 74 36 98 24 24 58 35 101 35 11 0 23-2 36-6 12-4 23-9 34-16 11-7 20-14 27-20 8-6 15-12 22-19 7 7 14 13 22 19 7 6 16 13 27 20 11 7 22 12 34 16 13 4 25 6 36 6 43 0 77-11 101-35 24-24 36-56 36-98z"/>
<glyph glyph-name="arrow-circle-right-line" unicode="&#71;" d="M375 256c0-7-3-12-9-16l-156-91c-3-2-6-3-9-3-3 0-6 1-9 3-6 3-9 9-9 16l0 182c0 7 3 13 9 16 6 4 12 4 18 0l156-91c6-4 9-9 9-16z m36 0c0 28-7 54-20 78-14 24-33 43-57 57-24 13-50 20-78 20-28 0-54-7-78-20-24-14-43-33-57-57-13-24-20-50-20-78 0-28 7-54 20-78 14-24 33-43 57-57 24-13 50-20 78-20 28 0 54 7 78 20 24 14 43 33 57 57 13 24 20 50 20 78z m64 0c0-40-9-77-29-110-20-34-46-60-80-80-33-20-70-29-110-29-40 0-77 9-110 29-34 20-60 46-80 80-20 33-29 70-29 110 0 40 9 77 29 110 20 34 46 60 80 80 33 20 70 29 110 29 40 0 77-9 110-29 34-20 60-46 80-80 20-33 29-70 29-110z"/>
<glyph glyph-name="certificate" unicode="&#72;" d="M430 256l39-39c6-5 8-12 6-20-2-7-7-12-15-14l-54-14 15-53c3-8 1-14-5-20-6-6-12-8-20-5l-53 15-14-54c-2-8-7-13-14-15-3 0-5 0-6 0-6 0-11 2-14 6l-39 39-39-39c-5-6-12-8-20-6-7 2-12 7-14 15l-14 54-53-15c-8-3-14-1-20 5-6 6-8 12-5 20l15 53-54 14c-8 2-13 7-15 14-2 8 0 15 6 20l39 39-39 39c-6 5-8 12-6 20 2 7 7 12 15 14l54 14-15 53c-3 8-1 14 5 20 6 6 12 8 20 5l53-15 14 54c2 8 7 13 14 15 8 2 15 0 20-6l39-40 39 40c5 6 12 8 20 6 7-2 12-7 14-15l14-54 53 15c8 3 14 1 20-5 6-6 8-12 5-20l-15-53 54-14c8-2 13-7 15-14 2-8 0-15-6-20z"/>
<glyph glyph-name="circle" unicode="&#73;" d="M475 256c0-40-9-77-29-110-20-34-46-60-80-80-33-20-70-29-110-29-40 0-77 9-110 29-34 20-60 46-80 80-20 33-29 70-29 110 0 40 9 77 29 110 20 34 46 60 80 80 33 20 70 29 110 29 40 0 77-9 110-29 34-20 60-46 80-80 20-33 29-70 29-110z"/>
<glyph glyph-name="star" unicode="&#74;" d="M494 327c0-4-3-9-8-14l-103-101 24-143c0-1 0-3 0-5 0-4-1-8-3-10-2-3-4-5-8-5-4 0-8 2-12 4l-128 67-128-67c-4-2-8-4-12-4-4 0-7 2-9 5-2 2-3 6-3 10 0 1 0 3 1 5l24 143-104 101c-4 6-7 10-7 14 0 7 6 12 16 13l144 21 64 130c4 8 8 12 14 12 6 0 10-4 14-12l64-130 144-21c10-1 16-6 16-13z"/>
<glyph glyph-name="heart" unicode="&#75;" d="M256 37c-5 0-9 1-13 5l-178 172c-2 1-4 4-8 7-3 4-8 10-16 19-7 9-13 18-19 28-6 9-11 21-15 34-5 14-7 27-7 40 0 42 12 74 36 98 24 24 58 35 101 35 11 0 23-2 36-6 12-4 23-9 34-16 11-7 20-14 27-20 8-6 15-12 22-19 7 7 14 13 22 19 7 6 16 13 27 20 11 7 22 12 34 16 13 4 25 6 36 6 43 0 77-11 101-35 24-24 36-56 36-98 0-42-22-85-65-129l-178-171c-4-4-8-5-13-5z"/>
<glyph glyph-name="document" unicode="&#76;" d="M445 381l-128 128c-2 2-5 3-8 3l-234 0c-6 0-11-5-11-11l0-490c0-6 5-11 11-11l362 0c6 0 11 5 11 11l0 362c0 3-1 6-3 8z m-285-18l96 0c6 0 11-5 11-11 0-6-5-11-11-11l-96 0c-6 0-11 5-11 11 0 6 5 11 11 11z m192-278l-192 0c-6 0-11 5-11 11 0 6 5 11 11 11l192 0c6 0 11-5 11-11 0-6-5-11-11-11z m0 64l-192 0c-6 0-11 5-11 11 0 6 5 11 11 11l192 0c6 0 11-5 11-11 0-6-5-11-11-11z m0 64l-192 0c-6 0-11 5-11 11 0 6 5 11 11 11l192 0c6 0 11-5 11-11 0-6-5-11-11-11z m0 64l-192 0c-6 0-11 5-11 11 0 6 5 11 11 11l192 0c6 0 11-5 11-11 0-6-5-11-11-11z m-43 96l0 128 128-128z"/>
<glyph glyph-name="dollar" unicode="&#77;" d="M267 162c18 4 32 21 32 41 0 19-14 36-32 41z m-54 147c0-19 14-36 32-41l0 82c-18-4-32-21-32-41z m43 203c-141 0-256-115-256-256 0-141 115-256 256-256 141 0 256 115 256 256 0 141-115 256-256 256z m64-309c0-32-23-58-53-63l0-23c0-6-5-10-11-10-6 0-11 4-11 10l0 23c-30 5-53 31-53 63 0 6 5 10 11 10 6 0 10-4 10-10 0-20 14-37 32-41l0 84c-30 5-53 32-53 63 0 32 23 58 53 63l0 23c0 6 5 10 11 10 6 0 11-4 11-10l0-23c30-5 53-31 53-63 0-6-5-10-11-10-6 0-10 4-10 10 0 20-14 37-32 41l0-84c30-5 53-32 53-63z"/>
<glyph glyph-name="file" unicode="&#78;" d="M329 366l0 135c4-3 8-6 10-8l117-117c3-3 5-6 8-10z m-36-9c0-8 2-15 8-20 5-5 11-8 19-8l155 0 0-302c0-7-2-14-8-19-5-5-11-8-19-8l-384 0c-8 0-14 3-19 8-6 5-8 12-8 19l0 458c0 7 2 14 8 19 5 5 11 8 19 8l229 0z"/>
<glyph glyph-name="money" unicode="&#79;" d="M448 354l0 41c0 6-5 10-11 10l-362 0c-6 0-11-4-11-10l0-41c-39-17-64-56-64-98 0-42 25-81 64-98l0-41c0-6 5-10 11-10l362 0c6 0 11 4 11 10l0 41c39 17 64 56 64 98 0 42-25 81-64 98z m-192-87c24 0 43-19 43-43 0-20-14-36-32-41l0-12c0-6-5-11-11-11-6 0-11 5-11 11l0 12c-18 5-32 21-32 41 0 6 5 11 11 11 6 0 11-5 11-11 0-12 9-21 21-21 12 0 21 9 21 21 0 12-9 21-21 21-24 0-43 19-43 43 0 20 14 36 32 41l0 12c0 6 5 11 11 11 6 0 11-5 11-11l0-12c18-5 32-21 32-41 0-6-5-11-11-11-6 0-11 5-11 11 0 12-9 21-21 21-12 0-21-9-21-21 0-12 9-21 21-21z"/>
<glyph glyph-name="book" unicode="&#80;" d="M0 459l0-352c0-6 5-11 11-11 145 0 234-37 234-64l0 388c-42 32-140 49-234 49-6 0-11-4-11-10z m65-86c55-3 106-13 141-27 6-2 9-8 7-14-2-4-6-6-10-6-2 0-3 0-4 0-34 13-82 22-136 26-6 0-10 6-10 11 1 6 6 11 12 10z m0-64c55-3 106-13 141-27 6-2 9-8 7-14-2-4-6-6-10-6-2 0-3 0-4 0-34 13-82 22-136 26-6 0-10 6-10 11 1 6 6 11 12 10z m0-64c55-3 106-13 141-27 6-2 9-8 7-14-2-4-6-6-10-6-2 0-3 0-4 0-34 13-82 22-136 26-6 0-10 6-10 11 1 6 6 11 12 10z m0-64c55-3 106-13 141-27 6-2 9-8 7-14-2-4-6-6-10-6-2 0-3 0-4 0-34 13-82 22-136 26-6 0-10 6-10 11 1 6 6 11 12 10z m436 288c-94 0-192-17-234-49l0-388c0 27 89 64 234 64 6 0 11 5 11 11l0 352c0 6-5 10-11 10z m-52-309c-54-4-102-13-136-26-1 0-2 0-4 0-4 0-8 2-10 6-2 6 1 12 7 14 36 14 86 24 141 27 6 1 11-4 12-10 0-5-4-11-10-11z m0 64c-54-4-102-13-136-26-1 0-2 0-4 0-4 0-8 2-10 6-2 6 1 12 7 14 36 14 86 24 141 27 6 1 11-4 12-10 0-5-4-11-10-11z m0 64c-54-4-102-13-136-26-1 0-2 0-4 0-4 0-8 2-10 6-2 6 1 12 7 14 36 14 86 24 141 27 6 1 11-4 12-10 0-5-4-11-10-11z m0 64c-54-4-102-13-136-26-1 0-2 0-4 0-4 0-8 2-10 6-2 6 1 12 7 14 36 14 86 24 141 27 6 1 11-4 12-10 0-5-4-11-10-11z"/>
<glyph glyph-name="youtube" unicode="&#81;" d="M314 157l0-61c0-12-4-19-11-19-5 0-9 2-13 6l0 86c4 5 8 7 13 7 7 0 11-7 11-19z m97-1l0-13-26 0 0 13c0 13 4 20 13 20 8 0 13-7 13-20z m-276 63l30 0 0 26-89 0 0-26 30 0 0-163 29 0z m82-163l25 0 0 141-25 0 0-108c-6-8-11-12-16-12-4 0-6 2-6 6-1 1-1 4-1 10l0 104-25 0 0-112c0-9 1-16 2-20 2-7 8-11 17-11 9 0 19 6 29 17z m122 42l0 57c0 13 0 23-2 28-3 11-10 16-20 16-10 0-19-5-27-16l0 62-25 0 0-189 25 0 0 14c9-11 17-16 27-16 10 0 17 5 20 16 2 5 2 14 2 28z m97 3l0 4-26 0c0-10 0-16-1-18-1-6-5-10-11-10-9 0-13 7-13 20l0 25 51 0 0 29c0 15-3 26-8 33-7 10-17 15-30 15-13 0-23-5-31-15-5-7-8-18-8-33l0-49c0-15 3-26 9-33 7-10 17-15 31-15 13 0 24 5 30 15 4 5 6 10 6 16 1 1 1 7 1 16z m-174 261l0 60c0 13-4 20-12 20-8 0-12-7-12-20l0-60c0-13 4-20 12-20 8 0 12 7 12 20z m206-215c0-44-3-77-8-100-2-11-8-20-16-28-9-7-18-12-29-13-35-4-88-6-159-6-71 0-124 2-159 6-11 1-20 6-29 13-8 8-14 17-16 28-5 22-8 55-8 100 0 45 3 78 8 100 2 12 8 21 16 29 9 7 18 12 30 13 35 4 87 6 158 6 71 0 124-2 159-6 11-1 20-6 29-13 8-8 14-17 16-29 5-21 8-54 8-100z m-285 365l29 0-35-114 0-77-28 0 0 77c-3 14-9 34-18 61-7 19-13 37-18 53l30 0 20-75z m105-95l0-50c0-16-2-27-8-34-7-10-17-14-30-14-13 0-23 4-30 14-5 7-8 19-8 34l0 50c0 15 3 26 8 33 7 10 17 15 30 15 13 0 23-5 30-15 6-7 8-18 8-33z m96 46l0-142-26 0 0 15c-10-12-20-17-29-17-9 0-15 3-17 10-2 5-3 12-3 22l0 112 26 0 0-105c0-6 1-9 1-10 0-4 2-6 6-6 5 0 10 4 16 12l0 109z"/>
<glyph glyph-name="mail-outline" unicode="&#82;" d="M448 405l-384 0c-24 0-43-19-43-42l0-235c0-24 19-43 43-43l384 0c24 0 43 19 43 43l0 235c0 23-19 42-43 42z m0-21c1 0 3 0 4 0l-196-157-196 157c1 0 3 0 4 0z m21-256c0-12-9-21-21-21l-384 0c-12 0-21 9-21 21l0 235c0 2 0 4 1 6l205-164c2-2 5-2 7-2 2 0 5 0 7 2l205 164c1-2 1-4 1-6z"/>
<glyph glyph-name="credit-card" unicode="&#83;" d="M459 405l-406 0c-29 0-53-24-53-53l0-32 512 0 0 32c0 29-24 53-53 53z m-459-266c0-30 24-54 53-54l406 0c29 0 53 24 53 54l0 160-512 0z m373 117l64 0c6 0 11-5 11-11 0-6-5-10-11-10l-64 0c-6 0-10 4-10 10 0 6 4 11 10 11z m-298 0l170 0c6 0 11-5 11-11 0-6-5-10-11-10l-170 0c-6 0-11 4-11 10 0 6 5 11 11 11z m0-43l64 0c6 0 10-4 10-10 0-6-4-11-10-11l-64 0c-6 0-11 5-11 11 0 6 5 10 11 10z"/>
<glyph glyph-name="like" unicode="&#84;" d="M490 267c0 23-19 42-42 42l-157 0c6 25 18 80 18 113 0 42-25 61-48 61-21 0-37-15-37-35 0-94-79-160-150-160l-64 0c-5 0-10-5-10-11l0-192c0-6 5-10 10-10 98 0 132-15 159-26 20-9 39-17 76-17l139 0c23 0 42 19 42 43 0 8-2 17-7 23 17 6 29 22 29 41 0 8-3 17-7 23 16 6 28 22 28 41 0 8-3 17-7 23 17 6 28 22 28 41z"/>
<glyph glyph-name="download" unicode="&#85;" d="M241 145c4-4 10-6 15-6 5 0 11 2 15 6l171 171c8 8 8 21 0 30-9 8-22 8-30 0l-156-156-156 156c-8 8-21 8-30 0-8-9-8-22 0-30z m250-60l-470 0c-11 0-21-9-21-21 0-12 10-21 21-21l470 0c11 0 21 9 21 21 0 12-10 21-21 21z"/>
<glyph glyph-name="check" unicode="&#86;" d="M509 360l-75 74c-4 4-11 4-15 0l-259-259-67 67c-4 4-11 4-15 0l-75-74c-4-5-4-11 0-16l149-149c3-2 5-3 8-3 3 0 5 1 8 3l341 341c4 5 4 11 0 16z"/>
<glyph glyph-name="add" unicode="&#87;" d="M491 277l-213 0 0 214c0 11-10 21-21 21 0 0 0 0 0 0-12 0-22-10-22-21l0-214-214 0c-11 0-21-9-21-21 0-12 10-21 21-21l214 0 0-214c0-11 9-21 21-21l0 0c12 0 21 10 21 21l1 214 213 0c12 0 21 9 21 21 0 12-9 21-21 21z"/>
<glyph glyph-name="long-arrow-right" unicode="&#88;" d="M512 260c-1 1-1 1-1 2 0 1 0 1-1 2 0 1 0 2-1 2 0 1 0 1-1 2 0 1-1 2-2 3l-107 107c-8 8-22 8-30 0-8-9-8-22 0-30l70-71-418 0c-11 0-21-9-21-21 0-12 10-21 21-21l418 0-70-71c-8-8-8-21 0-30 4-4 10-6 15-6 5 0 11 2 15 6l107 107c1 1 2 2 2 3 1 1 1 1 1 2 1 0 1 1 1 2 1 1 1 1 1 2 0 1 0 1 1 2 0 3 0 5 0 8z"/>
<glyph glyph-name="clock-outline" unicode="&#89;" d="M256 512c-141 0-256-115-256-256 0-141 115-256 256-256 141 0 256 115 256 256 0 141-115 256-256 256z m0-491c-129 0-235 106-235 235 0 129 106 235 235 235 129 0 235-106 235-235 0-129-106-235-235-235z m0 240l0 112c0 6-5 11-11 11-6 0-10-5-10-11l0-117c0-3 1-6 3-8l128-117c2-2 5-3 7-3 3 0 6 1 8 3 4 5 4 12 0 16z"/>
<glyph glyph-name="play" unicode="&#90;" d="M506 266l-491 245c-3 2-7 1-10-1-3-2-5-5-5-9l0-490c0-4 2-7 5-9 2-1 4-2 6-2 1 0 3 0 4 1l491 245c4 2 6 6 6 10 0 4-2 8-6 10z"/>
<glyph glyph-name="search" unicode="&#48;" d="M192 128c45 0 87 16 120 42l164-164c4-4 9-6 15-6 5 0 11 2 15 6 8 9 8 22 0 30l-164 165c26 33 42 74 42 119 0 106-86 192-192 192-106 0-192-86-192-192 0-106 86-192 192-192z m0 341c82 0 149-67 149-149 0-82-67-149-149-149-82 0-149 67-149 149 0 82 67 149 149 149z"/>
<glyph glyph-name="filter" unicode="&#49;" d="M511 506c-2 4-6 6-10 6l-490 0c-4 0-8-2-10-6-2-4-1-8 1-11l211-255 0-229c0-5 3-9 7-10 1-1 3-1 4-1 3 0 6 1 8 3l64 64c2 2 3 5 3 8l0 165 211 255c2 3 3 7 1 11z"/>
<glyph glyph-name="profile" unicode="&#50;" d="M256 512c-141 0-256-115-256-256 0-68 26-132 74-180l0 0c49-49 113-76 182-76 69 0 134 27 182 76 48 48 74 112 74 180 0 141-115 256-256 256z m173-414c-23 13-57 25-92 38-9 3-19 7-28 10l0 39c11 7 30 24 32 63 8 5 14 16 14 29 0 13-5 23-12 28 6 16 15 46 9 71-8 30-48 40-80 40-29 0-64-8-76-31-15 1-23-6-28-11-13-18-4-51 1-69-7-5-12-15-12-28 0-13 6-24 14-29 2-39 21-56 32-62l0-40c-9-3-17-6-25-9-35-13-71-26-94-40-40 44-63 100-63 159 0 129 106 235 235 235 129 0 235-106 235-235 0-59-22-115-62-158z"/>
<glyph glyph-name="logo" unicode="&#51;" d="M23 197l-4 0 0 13-15 0 0-13-4 0 0 28 4 0 0-12 15 0 0 12 4 0z m16 20c1 0 3 0 4 0 1-1 2-2 3-2 1-1 1-2 2-4 0-1 0-2 0-4 0-2 0-3 0-4-1-2-1-3-2-4-1-1-2-1-3-2-1 0-3-1-4-1-2 0-3 1-4 1-2 1-3 1-3 2-1 1-2 2-2 4-1 1-1 2-1 4 0 2 0 3 1 4 0 2 1 3 2 4 0 0 1 1 3 2 1 0 2 0 4 0z m0-18c2 0 3 1 4 2 1 2 2 4 2 6 0 2-1 4-2 5-1 2-2 2-4 2-2 0-4 0-5-2-1-1-1-3-1-5 0-2 0-4 1-6 1-1 3-2 5-2z m2-7c0-1 0-1 0-1 0 0 0-1-1-1 0 0 0 0 0 0-1 0-1-1-1-1-1 0-1 1-1 1 0 0-1 0-1 0 0 0 0 1 0 1-1 0-1 0-1 1 0 0 0 0 1 1 0 0 0 0 0 0 0 1 1 1 1 1 0 0 0 0 1 0 0 0 0 0 1 0 0 0 0 0 0-1 1 0 1 0 1 0 0-1 0-1 0-1z m27 21c0 0 0 0 0 0 0 0-1 0-1 0 0 0 0 0 0 0-1 0-1 0-1 1-1 0-1 0-2 0 0 0-1 0-2 0 0 0-1 0-2 0-1 0-1-1-2-2 0 0-1-1-1-2 0-1 0-2 0-3 0-1 0-2 0-3 0-1 1-2 1-3 1 0 1-1 2-1 1 0 1-1 2-1 1 0 2 1 2 1 1 0 1 0 2 0 0 1 0 1 1 1 0 0 0 0 0 0 1 0 1 0 1 0l1-1c0-1-1-1-1-2-1 0-2-1-2-1-1 0-2 0-2 0-1 0-2-1-2-1-2 0-3 1-4 1-1 1-2 1-3 2-1 1-1 2-2 3 0 2 0 3 0 5 0 1 0 3 0 4 1 1 1 2 2 3 1 1 2 2 3 3 1 0 3 0 4 0 2 0 3 0 4 0 1-1 2-1 3-2z m26 4c1 0 2 0 4 0 1-1 2-2 3-2 1-1 1-2 2-4 0-1 0-2 0-4 0-2 0-3 0-4-1-2-1-3-2-4-1-1-2-1-3-2-2 0-3-1-4-1-2 0-3 1-4 1-2 1-3 1-3 2-1 1-2 2-2 4-1 1-1 2-1 4 0 2 0 3 1 4 0 2 1 3 2 4 0 0 1 1 3 2 1 0 2 0 4 0z m0-18c2 0 3 1 4 2 1 2 1 4 1 6 0 2 0 4-1 5-1 2-2 2-4 2-2 0-4 0-5-2-1-1-1-3-1-5 0-2 0-4 1-6 1-1 3-2 5-2z m15-2l0 20 2 0c1 0 1 0 1-1l0-2c1 1 2 2 3 2 1 1 3 1 4 1 1 0 2 0 3 0 1-1 1-1 2-2 1 0 1-1 1-2 1-1 1-2 1-3l0-13-4 0 0 13c0 1 0 2-1 3-1 1-2 1-3 1-1 0-2 0-3 0-1-1-2-2-2-2l0-15z m27 29l0-29-4 0 0 29z m11-3c0 0 0 0 0-1 0 0 0 0-1-1 0 0 0 0 0 0-1 0-1 0-1 0-1 0-1 0-1 0-1 0-1 0-1 0 0 1-1 1-1 1 0 1 0 1 0 1 0 1 0 1 0 1 0 1 1 1 1 1 0 0 0 1 1 1 0 0 0 0 1 0 0 0 0 0 1 0 0 0 0-1 0-1 1 0 1 0 1-1 0 0 0 0 0-1z m0-6l0-20-4 0 0 20z m6-20l0 20 2 0c1 0 1 0 1-1l1-2c1 1 2 2 3 2 1 1 2 1 3 1 2 0 3 0 3 0 1-1 2-1 2-2 1 0 1-1 2-2 0-1 0-2 0-3l0-13-4 0 0 13c0 1 0 2-1 3 0 1-1 1-3 1-1 0-2 0-3 0 0-1-1-2-2-2l0-15z m32 20c1 0 2 0 3 0 1-1 2-1 3-2 1-1 1-2 2-3 0-1 0-2 0-4 0 0 0-1 0-1 0 0 0 0 0 0l-14 0c0-1 0-3 1-3 0-1 0-2 1-3 0 0 1-1 2-1 1 0 1-1 2-1 1 0 2 1 3 1 0 0 1 0 1 0 1 1 1 1 1 1 1 0 1 0 1 0 1 0 1 0 1 0l1-1c0-1-1-1-2-2 0 0-1-1-1-1-1 0-2 0-3 0 0 0-1-1-2-1-1 0-3 1-4 1-1 1-2 1-3 2-1 1-1 2-2 4 0 1-1 3-1 4 0 2 1 3 1 4 0 1 1 3 2 3 1 1 2 2 3 3 1 0 2 0 4 0z m0-2c-2 0-3-1-4-2-1-1-2-2-2-4l11 0c0 1 0 2 0 2-1 1-1 2-1 2-1 1-1 1-2 1-1 0-1 1-2 1z m39-2c0 0 0 0 0 0 0 0-1 0-1 0 0 0 0 0-1 0 0 0 0 0 0 1-1 0-1 0-2 0 0 0-1 0-2 0 0 0-1 0-2 0-1 0-1-1-2-2 0 0-1-1-1-2 0-1 0-2 0-3 0-1 0-2 0-3 0-1 1-2 1-3 1 0 1-1 2-1 1 0 1-1 2-1 1 0 2 1 2 1 1 0 1 0 2 0 0 1 0 1 1 1 0 0 0 0 0 0 1 0 1 0 1 0l1-1c0-1-1-1-1-2-1 0-2-1-2-1-1 0-2 0-2 0-1 0-2-1-2-1-2 0-3 1-4 1-1 1-2 1-3 2-1 1-1 2-2 3 0 2 0 3 0 5 0 1 0 3 0 4 1 1 1 2 2 3 1 1 2 2 3 3 1 0 3 0 4 0 2 0 3 0 4 0 1-1 2-1 3-2z m9 4l0-13c0-1 1-3 1-3 1-1 2-2 4-2 1 0 2 1 2 1 1 1 2 1 3 2l0 15 4 0 0-20-3 0c0 0 0 0-1 1l0 2c-1-1-2-2-3-3-1 0-2-1-4-1-1 0-2 1-2 1-1 0-2 1-3 2 0 0-1 1-1 2 0 1 0 2 0 3l0 13z m3 9c1 0 1 0 1 0 1-1 1-1 1-1l3-5-2 0c-1 0-1 0-1 0 0 0 0 0-1 1l-4 5z m17-29l0 20 2 0c1 0 1 0 1-1l1-2c1 1 2 2 3 2 1 1 2 1 3 1 2 0 2 0 3 0 1-1 2-1 2-2 1 0 1-1 2-2 0-1 0-2 0-3l0-13-4 0 0 13c0 1 0 2-1 3 0 1-1 1-3 1-1 0-2 0-3 0 0-1-1-2-2-2l0-15z m31 20c1 0 1 0 2 0 1 0 2 0 2-1l6 0 0-1c0-1-1-1-1-1l-2 0c0-1 0-2 0-3 0-1 0-2 0-3-1-1-1-1-2-2-1 0-1-1-2-1-1-1-2-1-3-1-1 0-2 0-3 1-1-1-1-1-1-2 0-1 0-1 0-1 1 0 1-1 2-1 1 0 1 0 2 0 1 0 2 0 3 0 0 0 1 0 2 0 1 0 2-1 2-1 1 0 1-1 2-1 0-1 0-2 0-3 0-1 0-1 0-2-1-1-1-2-2-2-1-1-2-2-3-2-1 0-3-1-4-1-2 0-3 1-4 1-1 0-2 1-3 1-1 1-1 1-1 2-1 0-1 1-1 2 0 1 0 2 1 2 1 1 1 2 2 2 0 0-1 1-1 1 0 1 0 1 0 2 0 0 0 0 0 1 0 0 0 0 0 1 0 0 1 0 1 1 0 0 1 0 1 0-1 1-2 2-2 3-1 1-1 2-1 3 0 1 0 2 0 3 1 0 1 1 2 2 1 0 2 1 3 1 0 0 1 0 3 0z m6-21c0 0 0 1-1 1 0 0 0 0-1 1 0 0-1 0-1 0-1 0-1 0-2 0-1 0-2 0-2 0-1 0-2 0-2 0-1 0-2 0-2-1-1 0-1-1-1-2 0 0 0-1 1-1 0 0 0-1 1-1 0 0 1 0 1-1 1 0 2 0 3 0 1 0 2 0 2 0 1 1 2 1 2 1 1 1 1 1 1 1 1 1 1 1 1 2z m-6 11c0 0 1 0 1 0 1 0 1 1 2 1 0 0 0 1 1 1 0 1 0 1 0 2 0 1 0 2-1 3-1 0-2 1-3 1-2 0-3-1-4-1 0-1-1-2-1-3 0-1 0-1 1-2 0 0 0-1 0-1 1 0 1-1 2-1 0 0 1 0 2 0z m40 6c0 0-1 0-1 0 0 0 0 0 0 0 0 0-1 0-1 0 0 0 0 0-1 1 0 0 0 0-1 0 0 0-1 0-2 0-1 0-2 0-2 0-1 0-2-1-2-2-1 0-1-1-1-2-1-1-1-2-1-3 0-1 0-2 1-3 0-1 0-2 1-3 0 0 1-1 2-1 0 0 1-1 2-1 1 0 2 1 2 1 1 0 1 0 1 0 1 1 1 1 1 1 1 0 1 0 1 0 0 0 1 0 1 0l1-1c-1-1-1-1-2-2 0 0-1-1-2-1 0 0-1 0-2 0 0 0-1-1-2-1-1 0-2 1-3 1-1 1-2 1-3 2-1 1-2 2-2 3 0 2-1 3-1 5 0 1 1 3 1 4 0 1 1 2 2 3 1 1 2 2 3 3 1 0 2 0 4 0 1 0 3 0 4 0 1-1 2-1 3-2z m6-16l0 29 3 0 0-12c1 1 2 2 3 3 1 0 2 0 4 0 1 0 2 0 3 0 1-1 1-1 2-2 0 0 1-1 1-2 0-1 1-2 1-3l0-13-4 0 0 13c0 1-1 2-1 3-1 1-2 1-3 1-1 0-2 0-3 0-1-1-2-2-3-2l0-15z m26 20l0-13c0-1 1-3 2-3 0-1 1-2 3-2 1 0 2 1 2 1 1 1 2 1 3 2l0 15 4 0 0-20-3 0c0 0 0 0-1 1l0 2c-1-1-2-2-3-3-1 0-2-1-4-1-1 0-2 1-2 1-1 0-2 1-3 2 0 0-1 1-1 2 0 1 0 2 0 3l0 13z m27-26c-1 0-1-1-1-1 0 0 0 0-1 0l-3 0 4 8-8 19 3 0c0 0 1 0 1 0 0 0 0-1 0-1l5-12c1-1 1-1 1-2 0 0 0 1 0 1 0 0 1 1 1 1l5 12c0 0 0 1 0 1 0 0 1 0 1 0l3 0z m23 26c1 0 2 0 3 0 1-1 2-1 3-2 1-1 1-2 2-3 0-1 0-2 0-4 0 0 0-1 0-1 0 0 0 0-1 0l-13 0c0-1 0-3 0-3 1-1 1-2 2-3 0 0 1-1 2-1 0 0 1-1 2-1 1 0 2 1 2 1 1 0 2 0 2 0 1 1 1 1 1 1 1 0 1 0 1 0 0 0 1 0 1 0l1-1c-1-1-1-1-2-2 0 0-1-1-2-1 0 0-1 0-2 0-1 0-1-1-2-1-2 0-3 1-4 1-1 1-2 1-3 2-1 1-2 2-2 4-1 1-1 3-1 4 0 2 0 3 1 4 0 1 1 3 2 3 1 1 2 2 3 3 1 0 2 0 4 0z m6 3l-3 0c0 0 0 0 0 0 0 0 0 0 0 0l-3 3c0 0 0 0 0 0l-1 0-2-3c0 0-1 0-1 0l-2 0 4 5 4 0z m-6-5c-2 0-3-1-4-2-1-1-2-2-2-4l11 0c0 1 0 2-1 2 0 1 0 2-1 2 0 1 0 1-1 1-1 0-1 1-2 1z m13-18l0 20 3 0c0 0 1 0 1-1l0-2c1 1 2 2 3 2 1 1 2 1 4 1 1 0 2 0 3 0 0-1 1-1 2-2 0 0 1-1 1-2 0-1 0-2 0-3l0-13-3 0 0 13c0 1-1 2-1 3-1 1-2 1-3 1-1 0-2 0-3 0-1-1-2-2-3-2l0-15z m42 20c1 0 2 0 2 0 1 0 2 0 3-1l5 0 0-1c0-1 0-1-1-1l-2 0c0-1 1-2 1-3 0-1-1-2-1-3 0-1-1-1-2-2 0 0-1-1-2-1-1-1-2-1-3-1-1 0-2 0-3 1 0-1-1-1-1-2 0-1 0-1 1-1 0 0 1-1 1-1 1 0 2 0 2 0 1 0 2 0 3 0 1 0 2 0 2 0 1 0 2-1 3-1 0 0 1-1 1-1 1-1 1-2 1-3 0-1 0-1-1-2 0-1-1-2-2-2-1-1-2-2-3-2-1 0-2-1-4-1-1 0-3 1-4 1-1 0-2 1-2 1-1 1-2 1-2 2 0 0-1 1-1 2 0 1 1 2 1 2 1 1 2 2 3 2-1 0-1 1-2 1 0 1 0 1 0 2 0 0 0 0 0 1 0 0 0 0 1 1 0 0 0 0 0 1 1 0 1 0 1 0-1 1-1 2-2 3 0 1-1 2-1 3 0 1 0 2 1 3 0 0 1 1 1 2 1 0 2 1 3 1 1 0 2 0 3 0z m6-21c0 0 0 1 0 1 0 0-1 0-1 1-1 0-1 0-2 0 0 0-1 0-2 0 0 0-1 0-2 0-1 0-1 0-2 0-1 0-1 0-2-1 0 0 0-1 0-2 0 0 0-1 0-1 0 0 1-1 1-1 0 0 1 0 2-1 0 0 1 0 2 0 1 0 2 0 3 0 1 1 1 1 2 1 0 1 1 1 1 1 0 1 0 1 0 2z m-6 11c1 0 1 0 2 0 0 0 1 1 1 1 1 0 1 1 1 1 0 1 0 1 0 2 0 1 0 2-1 3-1 0-2 1-3 1-1 0-2-1-3-1-1-1-1-2-1-3 0-1 0-1 0-2 0 0 0-1 1-1 0 0 1-1 1-1 1 0 1 0 2 0z m19 16c0 0 0 0 0-1 0 0 0 0 0-1-1 0-1 0-1 0-1 0-1 0-1 0-1 0-1 0-1 0-1 0-1 0-1 0 0 1 0 1-1 1 0 1 0 1 0 1 0 1 0 1 0 1 1 1 1 1 1 1 0 0 0 1 1 1 0 0 0 0 1 0 0 0 0 0 1 0 0 0 0-1 1-1 0 0 0 0 0-1 0 0 0 0 0-1z m0-6l0-20-4 0 0 20z m19-20c0 0 0 0-1 0 0 0 0 0 0 1l0 1c-1 0-1 0-2-1 0 0-1-1-2-1 0 0-1 0-1 0-1-1-2-1-2-1-1 0-2 1-3 1 0 0-1 0-1 1-1 0-1 1-2 1 0 1 0 2 0 3 0 1 0 1 1 2 0 1 1 2 2 2 1 1 2 1 3 2 2 0 4 0 6 0l0 2c0 1 0 2-1 3 0 1-1 1-3 1 0 0-1 0-2 0 0 0-1 0-1-1-1 0-1 0-1 0-1-1-1-1-1-1-1 0-1 0-1 0 0 1 0 1 0 1l-1 1c1 1 2 2 4 3 1 0 2 0 4 0 1 0 2 0 3 0 1-1 2-1 2-2 1 0 1-1 2-2 0-1 0-2 0-3l0-13c0 0-2 0-2 0z m-7 2c0 0 1 0 1 0 1 0 1 1 2 1 0 0 1 0 1 1 1 0 1 0 1 1l0 4c-1 0-3 0-4-1-1 0-2 0-2 0-1-1-2-1-2-2 0 0 0 0 0-1 0 0 0-1 0-1 0-1 0-1 0-1 1 0 1-1 1-1 1 0 1 0 2 0z m-492 129c0 2 1 3 3 3l4 0c1 0 3-1 3-3l0-34 38 36c1 1 2 1 3 1l6 0c2 0 3-2 1-4l-39-36 41-42c1-1 1-3-2-3l-6 0c-1 0-2 0-2 0l-40 41 0-39c0-1-2-2-3-2l-4 0c-2 0-3 1-3 2z m105-41l-30 41c-1 1 0 3 2 3l6 0c1 0 1 0 2-1l24-34 25 34c1 1 1 1 2 1l6 0c2 0 3-2 2-3l-30-41 0-39c0-1-1-3-2-3l-5 0c-1 0-2 2-2 3 0 0 0 39 0 39z m140-38l37 81c0 1 1 1 2 1l1 0c1 0 2 0 2-1l37-81c1-2 0-3-2-3l-5 0c-1 0-1 0-2 1l-9 20-43 0-9-20c0-1-1-1-2-1l-5 0c-2 0-3 1-2 3z m58 25c-6 14-12 27-18 40l-1 0-18-40z m-143 54c0 1 0 3 2 3 0 0 2 0 3 0 1 0 2-1 2-1l53-66c0 0 0 0 0 0l0 65c0 1 1 2 3 2l4 0c1 0 2-1 2-2l0-81c0-2-1-2-2-2 0 0 0-1-3 0-1 0-2 2-2 2l-53 66-1 0 0-66c0-1-1-2-2-2l-4 0c-1 0-3 1-3 2z m176 0c-1 2 0 3 2 3l5 0c1 0 2-1 2-1l31-68 0 0 31 68c0 0 1 1 2 1l5 0c2 0 3-1 2-3l-37-81c-1-1-1-1-2-1l-2 0c-1 0-1 0-2 1z m19-75c0-4-4-7-8-7-4 0-7 3-7 7 0 4 3 7 7 7 4 0 8-3 8-7z m76 75c0 1 1 3 3 3 0 0 2 0 3 0 1 0 2-1 2-1l53-66c0 0 0 0 0 0l0 65c0 1 1 2 3 2l4 0c1 0 2-1 2-2l0-81c0-2-1-2-2-2 0 0-1-1-3 0-1 0-3 2-3 2l-53 66 0 0 0-66c0-1-1-2-2-2l-4 0c-2 0-3 1-3 2z"/>
<glyph glyph-name="sign-out" unicode="&#52;" d="M320 128l-128 0 0 288-128 64 256 0 0-96 32 0 0 128-352 0 0-416 192-96 0 96 160 0 0 160-32 0z m192 192l-128 96 0-64-128 0 0-64 128 0 0-64z"/>
<glyph glyph-name="arrow-left-bold" unicode="&#53;" d="M217 256l213 182c4 4 5 11 1 15l-47 55c-4 5-11 5-15 1l-287-245c-2-2-3-5-3-8 0-3 1-6 3-8l287-245c2-2 4-3 7-3 0 0 0 0 0 0 3 0 6 2 8 4l47 55c4 4 3 11-1 15z"/>
<glyph glyph-name="arrow-right-bold" unicode="&#54;" d="M430 264l-287 245c-2 2-4 3-7 3-3 0-6-2-8-4l-47-55c-4-4-3-11 1-15l213-182-213-182c-4-4-5-11-1-15l47-55c2-3 5-4 8-4 3 0 5 1 7 3l287 245c2 2 3 5 3 8 0 3-1 6-3 8z"/>
<glyph glyph-name="check-mark-circle" unicode="&#56;" d="M371 280l-120-121c-4-3-8-5-13-5-5 0-10 2-13 5l-84 84c-4 4-6 8-6 13 0 5 2 9 6 13l29 29c4 4 8 5 13 5 5 0 9-1 13-5l42-42 78 79c4 3 8 5 13 5 5 0 9-2 13-5l29-30c4-3 6-7 6-12 0-5-2-10-6-13z m40-24c0 28-7 54-20 78-14 24-33 43-57 57-24 13-50 20-78 20-28 0-54-7-78-20-24-14-43-33-57-57-13-24-20-50-20-78 0-28 7-54 20-78 14-24 33-43 57-57 24-13 50-20 78-20 28 0 54 7 78 20 24 14 43 33 57 57 13 24 20 50 20 78z m64 0c0-40-9-77-29-110-20-34-46-60-80-80-33-20-70-29-110-29-40 0-77 9-110 29-34 20-60 46-80 80-20 33-29 70-29 110 0 40 9 77 29 110 20 34 46 60 80 80 33 20 70 29 110 29 40 0 77-9 110-29 34-20 60-46 80-80 20-33 29-70 29-110z"/>
<glyph glyph-name="send-question" unicode="&#55;" d="M501 448l-490 0c-6 0-11-5-11-11l0-341c0-6 5-11 11-11l138 0 0-74c0-5 3-9 7-10 1-1 3-1 4-1 3 0 6 1 8 3l82 82 251 0c6 0 11 5 11 11l0 341c0 6-5 11-11 11z m-10-341l-246 0c-3 0-5-1-7-3l-67-68 0 60c0 6-5 11-11 11l-139 0 0 320 470 0z m-203 64c0-12-10-22-21-22-12 0-22 10-22 22 0 11 10 21 22 21 11 0 21-10 21-21z m-85 128c6 0 10 4 10 10 0 30 24 54 54 54 29 0 53-24 53-54 0-29-24-53-53-53-6 0-11-5-11-11l0-21c0-6 5-11 11-11 6 0 10 5 10 11l0 11c36 6 64 37 64 74 0 42-33 75-74 75-41 0-75-33-75-75 0-6 5-10 11-10z"/>
<glyph glyph-name="note" unicode="&#57;" d="M384 267c-6 0-11-5-11-11l0-235-352 0 0 427 288 0c6 0 11 5 11 11 0 6-5 10-11 10l-309 0 0-469 395 0 0 256c0 6-5 11-11 11z m126 224c-6 13-18 21-31 21-8 0-16-3-22-10l-30-30c0 0 0 0 0 0 0 0 0 0 0 0l-174-173c0-1-1-2-2-3l-30-60c-2-5-1-10 2-13 2-2 5-3 8-3 1 0 3 0 5 1l60 30c1 1 2 2 3 2l203 204c10 10 13 22 8 34z m-225-221l-30-15 15 30 164 165 16-16z m202 202l-22-22-15 15 22 22c2 3 5 4 7 4 5 0 9-4 11-8 2-4 1-7-3-11z"/>
<glyph glyph-name="check-complete-lesson" unicode="&#34;" d="M192 21l-122 214 74 42 49-86 176 300 73-44z"/>
<glyph glyph-name="arrow-collapse-bottom" unicode="&#33;" d="M511 466c-2 3-6 5-10 5l-490 0c-4 0-8-2-10-5-2-4-1-8 1-11l245-409c2-3 5-5 9-5 4 0 7 2 9 5l245 409c2 3 3 7 1 11z"/>
<glyph glyph-name="arrow-collapse-close" unicode="&#35;" d="M466 265l-409 245c-3 2-7 3-11 1-3-2-5-6-5-10l0-490c0-4 2-8 5-10 2-1 4-1 6-1 1 0 3 1 5 2l409 245c3 2 5 5 5 9 0 4-2 7-5 9z"/>
<glyph glyph-name="arrow-collapse-open" unicode="&#33;" d="M511 466c-2 3-6 5-10 5l-490 0c-4 0-8-2-10-5-2-4-1-8 1-11l245-409c2-3 5-5 9-5 4 0 7 2 9 5l245 409c2 3 3 7 1 11z"/>
<glyph glyph-name="caret-right" unicode="&#37;" d="M329 256c0-5-2-9-5-13l-128-128c-4-3-8-5-13-5-5 0-9 2-13 5-4 4-5 8-5 13l0 256c0 5 1 9 5 13 4 3 8 5 13 5 5 0 9-2 13-5l128-128c3-4 5-8 5-13z"/>
<glyph glyph-name="trash-o" unicode="&#38;" d="M201 302l0-165c0-3-1-5-2-6-2-2-4-3-7-3l-18 0c-3 0-5 1-7 3-2 1-2 3-2 6l0 165c0 2 0 5 2 6 2 2 4 3 7 3l18 0c3 0 5-1 7-3 1-1 2-4 2-6z m73 0l0-165c0-3-1-5-2-6-2-2-4-3-7-3l-18 0c-3 0-5 1-7 3-1 1-2 3-2 6l0 165c0 2 1 5 2 6 2 2 4 3 7 3l18 0c3 0 5-1 7-3 1-1 2-4 2-6z m73 0l0-165c0-3 0-5-2-6-2-2-4-3-7-3l-18 0c-3 0-5 1-7 3-1 1-2 3-2 6l0 165c0 2 1 5 2 6 2 2 4 3 7 3l18 0c3 0 5-1 7-3 2-1 2-4 2-6z m37-207l0 271-256 0 0-271c0-4 1-8 2-12 1-3 3-6 4-7 2-2 3-3 3-3l238 0c0 0 1 1 3 3 1 1 3 4 4 7 1 4 2 8 2 12z m-192 307l128 0-14 34c-1 1-3 2-5 3l-90 0c-2-1-4-2-5-3z m265-9l0-18c0-3-1-5-2-7-2-1-4-2-7-2l-27 0 0-271c0-16-5-30-14-41-9-12-20-17-32-17l-238 0c-12 0-23 5-32 16-9 11-14 25-14 41l0 272-27 0c-3 0-5 1-7 2-1 2-2 4-2 7l0 18c0 3 1 5 2 7 2 1 4 2 7 2l88 0 20 48c3 7 8 13 16 18 7 5 15 7 22 7l92 0c7 0 15-2 22-7 8-5 13-11 16-18l20-48 88 0c3 0 5-1 7-2 1-2 2-4 2-7z"/>
<glyph glyph-name="hot-line" unicode="&#36;" d="M366 167c-10 10-23 16-37 16-15 0-28-6-38-16l-8-8c-45 37-87 80-124 124l8 8c21 21 21 54 0 75l-45 46c-10 10-23 15-38 15-14 0-27-5-37-15l-25-25c-25-25-29-65-10-94 73-111 170-208 281-281 12-8 26-12 41-12 20 0 39 8 53 22l25 25c20 20 20 54 0 75z m-110 345c-6 0-11-5-11-11 0-6 5-10 11-10 129 0 235-106 235-235 0-6 4-11 10-11 6 0 11 5 11 11 0 141-115 256-256 256z m0-107c82 0 149-67 149-149 0-6 5-11 11-11 6 0 11 5 11 11 0 94-77 171-171 171-6 0-11-5-11-11 0-6 5-11 11-11z m0-85c35 0 64-29 64-64 0-6 5-11 11-11 6 0 10 5 10 11 0 47-38 85-85 85-6 0-11-4-11-10 0-6 5-11 11-11z"/>
<glyph glyph-name="bubble-comment" unicode="&#39;" d="M347 384l0-256c0-5-1-9-5-13-4-3-8-5-13-5-5 0-9 2-13 5l-128 128c-3 4-5 8-5 13 0 5 2 9 5 13l128 128c4 3 8 5 13 5 5 0 9-2 13-5 4-4 5-8 5-13z"/>
<glyph glyph-name="bubble-comment-1" unicode="&#39;" d="M501 448l-490 0c-6 0-11-5-11-11l0-341c0-6 5-11 11-11l138 0 0-74c0-5 3-9 7-10 1-1 3-1 4-1 3 0 6 1 8 3l82 82 251 0c6 0 11 5 11 11l0 341c0 6-5 11-11 11z m-10-341l-246 0c-3 0-5-1-7-3l-67-68 0 60c0 6-5 11-11 11l-139 0 0 320 470 0z m-374 213l192 0c6 0 11 5 11 11 0 6-5 10-11 10l-192 0c-6 0-10-4-10-10 0-6 4-11 10-11z m0-64l278 0c6 0 10 5 10 11 0 6-4 10-10 10l-278 0c-6 0-10-4-10-10 0-6 4-11 10-11z m0-64l278 0c6 0 10 5 10 11 0 6-4 10-10 10l-278 0c-6 0-10-4-10-10 0-6 4-11 10-11z"/>
<glyph glyph-name="caret-left" unicode="&#40;" d="M347 384l0-256c0-5-1-9-5-13-4-3-8-5-13-5-5 0-9 2-13 5l-128 128c-3 4-5 8-5 13 0 5 2 9 5 13l128 128c4 3 8 5 13 5 5 0 9-2 13-5 4-4 5-8 5-13z"/>
<glyph glyph-name="sticky-note" unicode="&#41;" d="M329 155l0-118-265 0c-8 0-14 2-19 8-6 5-8 11-8 19l0 384c0 8 2 14 8 19 5 6 11 8 19 8l384 0c8 0 14-2 19-8 6-5 8-11 8-19l0-265-118 0c-8 0-15-3-20-8-5-5-8-12-8-20z m37-9l109 0c-3-15-9-28-19-37l-53-53c-9-10-22-16-37-19z"/>
<glyph glyph-name="follow" unicode="&#43;" d="M406 475c4 0 8 0 12-2 7-3 12-7 15-12 4-5 6-11 6-18l0-368c0-6-2-12-6-18-3-5-8-9-15-11-3-2-8-3-12-3-9 0-17 3-24 10l-126 121-126-121c-7-7-15-10-24-10-4 0-8 1-12 3-7 2-12 6-15 11-4 6-6 12-6 18l0 368c0 7 2 13 6 18 3 5 8 9 15 12 4 2 8 2 12 2z"/>
<glyph glyph-name="reply" unicode="&#42;" d="M501 448l-490 0c-6 0-11-5-11-11l0-341c0-6 5-11 11-11l138 0 0-74c0-5 3-9 7-10 1-1 3-1 4-1 3 0 6 1 8 3l82 82 251 0c6 0 11 5 11 11l0 341c0 6-5 11-11 11z m-10-341l-246 0c-3 0-5-1-7-3l-67-68 0 60c0 6-5 11-11 11l-139 0 0 320 470 0z"/>
<glyph glyph-name="mail-inbox" unicode="&#44;" d="M379 173c-1-2-4-2-6-2-3 0-6 1-8 4-4 5-3 12 2 15l132 91-72 50 0 170c0 6-5 11-11 11l-320 0c-6 0-11-5-11-11l0-170-71-49 131-92c5-3 6-10 2-15-2-3-5-4-8-4-2 0-5 0-6 2l-133 93 0-223c0-24 19-43 43-43l426 0c24 0 43 19 43 43l0 221z m-272 62l0 256 298 0 0-256z m339-167c-2-3-6-4-9-4-2 0-4 1-6 2l-104 83-142 0-104-83c-4-3-11-3-15 2-3 5-3 11 2 15l107 85c2 2 4 3 6 3l150 0c2 0 4-1 6-3l107-85c5-4 5-10 2-15z m-286 380l43 0c6 0 10 5 10 11 0 6-4 10-10 10l-43 0c-6 0-11-4-11-10 0-6 5-11 11-11z m192-43l-149 0c-6 0-11-4-11-10 0-6 5-11 11-11l149 0c6 0 11 5 11 11 0 6-5 10-11 10z m0-64l-192 0c-6 0-11-4-11-10 0-6 5-11 11-11l192 0c6 0 11 5 11 11 0 6-5 10-11 10z m0-64l-192 0c-6 0-11-4-11-10 0-6 5-11 11-11l192 0c6 0 11 5 11 11 0 6-5 10-11 10z"/>
<glyph glyph-name="file-pdf" unicode="&#45;" d="M456 403c5-5 10-12 14-21 4-9 5-18 5-25l0-330c0-7-2-14-8-19-5-5-11-8-19-8l-384 0c-8 0-14 3-19 8-6 5-8 12-8 19l0 458c0 7 2 14 8 19 5 5 11 8 19 8l256 0c8 0 16-2 25-6 9-4 17-8 22-13z m-127 70l0-107 108 0c-2 5-4 9-7 11l-89 90c-2 2-6 4-12 6z m110-436l0 292-119 0c-8 0-14 3-19 8-6 5-8 12-8 20l0 118-220 0 0-438z m-147 169c6-5 14-10 24-16 11 1 22 2 33 2 28 0 45-5 51-14 3-4 3-9 1-15 0 0-1 0-1 0l0-1 0 0c-1-8-8-11-21-11-9 0-20 2-32 6-13 3-26 8-38 15-42-5-79-13-112-24-29-50-52-75-69-75-3 0-5 1-8 2l-7 4c0 0 0 0-1 1-2 2-3 5-2 10 2 8 7 17 16 26 9 10 22 19 38 28 2 2 5 1 6-2 1 0 1 0 1-1 10 16 20 35 30 56 13 26 23 51 30 75-4 16-7 31-9 46-1 15 0 27 2 36 2 8 6 12 12 12l7 0c4 0 7-2 10-5 3-4 4-10 2-19 0-1-1-2-1-2 0-1 0-2 0-3l0-8c0-24-1-42-4-55 11-31 25-54 42-68z m-165-117c10 4 23 19 40 45-10-8-18-16-25-24-7-9-12-16-15-21z m114 262c-3-8-3-20 0-37 0 1 0 5 2 12 0 1 0 5 2 13 0 0 0 1 1 2 0 0-1 0-1 0 0 1 0 1 0 1 0 0 0 0 0 0 0 4-1 8-4 11 0-1 0-1 0-1z m-35-188c25 10 52 18 81 23-1 0-2 1-4 2-2 2-3 3-4 4-15 13-27 30-37 51-5-17-13-36-23-57-6-10-10-18-13-23z m184 4c-4 5-18 7-40 7 15-5 27-8 36-8 2 0 4 0 5 0 0 0 0 1-1 1z"/>
<glyph glyph-name="ellipsis" unicode="&#46;" d="M114 208c-28 0-50 21-50 48 0 26 22 48 50 48 27 0 50-22 50-48 0-27-23-48-50-48z m142 0c-27 0-50 21-50 48 0 26 23 48 50 48 28 0 50-22 50-48 0-27-22-48-50-48z m142 0c-27 0-50 21-50 48 0 26 23 48 50 48 28 0 50-22 50-48 0-27-22-48-50-48z"/>
<glyph glyph-name="download-file" unicode="&#47;" d="M491 155c-12 0-22-9-22-21l0-41c0-22-18-50-40-50l-346 0c-22 0-40 28-40 50l0 41c0 12-10 21-22 21-11 0-21-9-21-21l0-41c0-44 35-93 83-93l346 0c48 0 83 49 83 93l0 41c0 12-10 21-21 21z m-261-34c1-1 2-2 4-2 0-1 1-1 1-1 1-1 1-1 2-1 1-1 2-1 2-1 1 0 2 0 2-1 2 0 3 0 4 0 2 0 3 0 5 0 0 1 1 1 1 1 1 0 2 0 3 1 0 0 1 0 2 1 0 0 1 0 1 1 1 0 2 1 3 2l150 150c8 8 8 21 0 30-9 8-22 8-30 0l-113-113 0 303c0 11-10 21-22 21-11 0-21-10-21-21l0-303-113 113c-8 8-22 8-30 0-8-9-8-22 0-30z"/>
<glyph glyph-name="arrow-collapse-top" unicode="&#58;" d="M509 59l-244 407c-4 7-14 7-18 0l-246-409c-2-3-2-7 0-11 2-3 6-5 10-5l490 0c0 0 0 0 0 0 6 0 11 5 11 11 0 2-1 5-3 7z"/>
<glyph glyph-name="error" unicode="&#59;" d="M245 501c-135 0-245-110-245-245 0-65 25-127 72-173 46-47 107-72 173-72 0 0 0 0 0 0 135 0 245 110 246 245 0 135-110 245-246 245z m0-480z m98 152c4-4 4-11 0-15-2-2-5-3-7-3-3 0-6 1-8 3l-83 83-83-83c-2-2-5-3-7-3-3 0-6 1-8 3-4 4-4 11 0 15l83 83-82 83c-5 4-5 11 0 15 4 4 10 4 15 0l82-83 84 83c4 4 10 4 15 0 4-4 4-11 0-15l-84-83z"/>
<glyph glyph-name="birthday" unicode="&#61;" d="M512 110l0-110-512 0 0 110c9 0 17 1 24 4 8 2 14 5 17 8 4 2 8 6 14 10 5 5 10 9 14 11 4 2 10 3 16 3 7 0 12-1 16-3 4-2 9-6 15-11 6-4 10-8 14-11 3-2 9-5 16-7 8-3 16-4 25-4 8 0 17 1 24 4 8 3 13 5 17 8 3 2 8 6 13 10 4 4 8 6 10 8 2 2 5 3 9 4 3 2 7 2 12 2 7 0 12-1 16-3 4-2 9-6 15-11 5-4 10-8 13-10 4-3 10-6 17-8 8-3 16-4 24-4 9 0 17 1 25 4 7 2 13 5 17 8 3 2 8 6 13 10 6 5 11 9 15 11 4 2 9 3 16 3 6 0 12-1 16-3 4-2 9-6 14-11 6-4 10-8 14-10 3-3 9-6 17-8 7-3 15-4 24-4z m0 91l0-55c-7 0-12 1-16 3-4 3-9 6-15 11-5 5-10 9-13 11-4 3-9 5-17 8-7 3-16 4-24 4-9 0-17-1-25-4-7-3-13-5-16-8-4-2-8-6-14-11-4-3-7-6-9-7-2-2-5-3-9-5-4-1-8-2-13-2-6 0-12 1-16 3-4 3-9 6-14 11-6 5-10 9-14 11-3 3-9 5-16 8-8 3-16 4-25 4-9 0-17-2-24-4-8-3-13-6-17-8-3-2-8-6-14-11-4-3-7-6-9-7-2-2-5-3-9-5-3-1-8-2-12-2-7 0-12 1-16 3-4 3-9 6-15 11-5 5-10 8-13 11-4 3-10 5-17 8-8 3-16 4-25 4-8 0-17-1-24-4-8-3-13-5-17-8-3-2-8-6-13-11-6-5-11-8-15-11-4-2-9-3-16-3l0 55c0 15 5 28 16 39 11 11 24 16 39 16l18 0 0 128 73 0 0-128 73 0 0 128 74 0 0-128 73 0 0 128 73 0 0-128 18 0c15 0 28-5 39-16 11-11 16-24 16-39z m-366 247c0-15-3-26-10-34-7-8-16-12-26-12-10 0-19 4-26 11-7 7-11 16-11 26 0 5 1 10 3 14 2 5 4 8 7 10 2 2 5 5 8 8 4 3 7 6 9 9 3 3 5 7 7 13 2 5 3 12 3 19 7 0 15-7 23-21 9-14 13-29 13-43z m147 0c0-15-4-26-11-34-7-8-15-12-26-12-10 0-19 4-26 11-7 7-11 16-11 26 0 5 1 10 3 14 2 5 4 8 7 10 3 2 5 5 9 8 3 3 6 6 9 9 2 3 4 7 6 13 2 5 3 12 3 19 7 0 15-7 24-21 8-14 13-29 13-43z m146 0c0-15-4-26-10-34-7-8-16-12-27-12-10 0-18 4-26 11-7 7-10 16-10 26 0 5 1 10 2 14 2 5 4 8 7 10 3 2 6 5 9 8 3 3 6 6 9 9 3 3 5 7 7 13 1 5 2 12 2 19 8 0 15-7 24-21 9-14 13-29 13-43z"/>
<glyph glyph-name="location" unicode="&#62;" d="M329 329c0 20-7 38-21 52-15 14-32 21-52 21-20 0-37-7-52-21-14-14-21-32-21-52 0-20 7-37 21-52 15-14 32-21 52-21 20 0 37 7 52 21 14 15 21 32 21 52z m73 0c0-21-3-38-9-51l-104-221c-3-6-8-11-14-15-6-4-12-5-19-5-7 0-13 1-19 5-6 4-11 9-14 15l-104 221c-6 13-9 30-9 51 0 41 14 75 43 104 28 28 63 42 103 42 40 0 75-14 103-42 29-29 43-63 43-104z"/>
<glyph glyph-name="lock" unicode="&#64;" d="M405 320l0 64c0 43-42 107-149 107-107 0-149-64-149-107l0-64-43 0 0-235c0-35 29-64 64-64l256 0c35 0 64 29 64 64l0 235z m-256 85c0 0 22 43 107 43 85 0 107-43 107-43l0-85-214 0z m256-320c0-11-9-21-21-21l-256 0c-12 0-21 10-21 21l0 192 298 0z m-170 70l0-48 42 0 0 48c13 8 22 21 22 37 0 24-19 43-43 43-24 0-43-19-43-43 0-16 9-29 22-37z"/>
<glyph glyph-name="card" unicode="&#63;" d="M452 416l-392 0c-15 0-28-13-28-28l0-264c0-16 13-28 28-28l392 0c16 0 28 13 28 28l0 264c0 15-12 28-28 28z m-375-32l358 0c7 0 12-5 13-12l0-20-384 0 0 20c1 7 6 12 13 12z m358-256l-358 0c-7 0-12 5-13 12l0 116 384 0 0-116c-1-7-6-12-13-12z m-339 80l192 0 0-16-192 0z m0-32l96 0 0-16-96 0z m256 32l64 0 0-48-64 0z"/>
<glyph glyph-name="hind" unicode="&#91;" d="M293 119l0 55c0 2-1 5-3 6-2 2-4 3-7 3l-54 0c-3 0-5-1-7-3-2-1-3-4-3-6l0-55c0-3 1-5 3-7 2-1 4-2 7-2l54 0c3 0 5 1 7 2 2 2 3 4 3 7z m73 192c0 17-6 32-16 46-11 15-24 26-40 34-16 7-32 11-48 11-47 0-82-20-106-61-3-4-2-8 2-12l38-28c1-1 3-2 5-2 3 0 6 1 7 4 10 13 19 21 25 26 6 4 15 7 24 7 10 0 18-3 25-8 7-5 11-10 11-17 0-7-2-13-6-17-4-4-10-9-20-13-12-5-23-13-33-25-10-11-15-23-15-35l0-11c0-2 1-5 3-6 2-2 4-3 7-3l54 0c3 0 5 1 7 3 2 1 3 4 3 6 0 4 2 9 6 14 4 6 9 11 15 15 6 3 11 6 14 8 4 2 8 5 13 10 6 4 10 9 13 13 3 5 6 11 8 18 3 7 4 14 4 23z m109-55c0-40-9-77-29-110-20-34-46-60-80-80-33-20-70-29-110-29-40 0-77 9-110 29-34 20-60 46-80 80-20 33-29 70-29 110 0 40 9 77 29 110 20 34 46 60 80 80 33 20 70 29 110 29 40 0 77-9 110-29 34-20 60-46 80-80 20-33 29-70 29-110z"/>
<glyph glyph-name="paper-plane" unicode="&#93;" d="M504 509c6-5 9-11 8-18l-73-439c-1-6-4-10-10-13-2-2-5-2-8-2-3 0-5 0-7 1l-130 53-69-84c-3-5-8-7-14-7-2 0-4 0-6 1-4 1-7 4-9 7-2 3-3 6-3 10l0 100 247 303-306-265-113 47c-7 2-10 7-11 15 0 8 3 14 9 17l476 274c2 2 5 3 9 3 4 0 7-1 10-3z"/>
</font>
</defs>
</svg>
